<svg width="22" height="20" viewBox="0 0 22 20" fill="none" xmlns="http://www.w3.org/2000/svg">
<path d="M19.83 6.00999L13.28 0.769988C12 -0.250012 9.99999 -0.260012 8.72999 0.759988L2.17999 6.00999C1.23999 6.75999 0.669993 8.25999 0.869993 9.43999L2.12999 16.98C2.41999 18.67 3.98999 20 5.69999 20H16.3C17.99 20 19.59 18.64 19.88 16.97L21.14 9.42999C21.32 8.25999 20.75 6.75999 19.83 6.00999ZM11.75 16C11.75 16.41 11.41 16.75 11 16.75C10.59 16.75 10.25 16.41 10.25 16V13C10.25 12.59 10.59 12.25 11 12.25C11.41 12.25 11.75 12.59 11.75 13V16Z" fill="#545454"/>
</svg>
